<?xml version="1.0" standalone="no"?><!DOCTYPE svg PUBLIC "-//W3C//DTD SVG 1.1//EN" "http://www.w3.org/Graphics/SVG/1.1/DTD/svg11.dtd"><svg t="1632825635749" class="icon" viewBox="0 0 1024 1024" version="1.1" xmlns="http://www.w3.org/2000/svg" p-id="5989" xmlns:xlink="http://www.w3.org/1999/xlink" width="32" height="32"><defs><style type="text/css"></style></defs><path d="M515.2 64c-246.4 0-448 201.6-448 448s201.6 448 448 448 448-201.6 448-448-201.6-448-448-448z m0 832c-211.2 0-384-172.8-384-384s172.8-384 384-384 384 172.8 384 384-172.8 384-384 384z" fill="#f84b74" p-id="5990"></path><path d="M656 288h-288c-28.8 0-48 22.4-48 48V384c0 6.4 6.4 12.8 12.8 16l179.2 32h6.4l172.8-32c6.4 0 12.8-9.6 12.8-16v-48c0-25.6-22.4-48-48-48zM684.8 432l-172.8 32-172.8-32c-3.2 0-9.6 0-12.8 3.2-6.4 3.2-6.4 9.6-6.4 12.8v240c0 25.6 22.4 48 48 48h288c25.6 0 48-22.4 48-48V448c0-3.2-3.2-9.6-6.4-12.8-3.2-3.2-9.6-3.2-12.8-3.2z m-128 172.8c9.6 0 16 6.4 16 16s-6.4 16-16 16h-32v25.6c0 9.6-6.4 16-16 16s-16-6.4-16-16v-25.6h-32c-9.6 0-16-6.4-16-16s6.4-16 16-16h32v-22.4h-32c-9.6 0-16-6.4-16-16s6.4-16 16-16h9.6l-16-19.2c-6.4-6.4-6.4-16 0-22.4 6.4-6.4 16-6.4 22.4 0l32 35.2 32-35.2c6.4-6.4 16-6.4 22.4 0 6.4 6.4 6.4 16 0 22.4l-19.2 19.2h9.6c9.6 0 16 6.4 16 16s-6.4 16-16 16h-32v22.4h35.2z" fill="#f84b74" p-id="5991"></path></svg>