<?xml version="1.0" standalone="no"?><!DOCTYPE svg PUBLIC "-//W3C//DTD SVG 1.1//EN" "http://www.w3.org/Graphics/SVG/1.1/DTD/svg11.dtd"><svg t="1632465471407" class="icon" viewBox="0 0 1024 1024" version="1.1" xmlns="http://www.w3.org/2000/svg" p-id="2415" xmlns:xlink="http://www.w3.org/1999/xlink" width="32" height="32"><defs><style type="text/css"></style></defs><path d="M747.561479 952.548804c-12.845159 0-25.42271-3.077486-36.929831-8.96485l-197.494316-104.500719-199.367569 104.366915c-11.373318 5.887364-24.084673 9.098654-36.929831 8.964851-15.655037 0-31.042467-4.549327-44.155233-13.24657-23.817065-16.056448-36.260813-44.422841-31.711486-72.789233l38.535476-226.128316L72.789233 474.601855A72.419935 72.419935 0 0 1 54.859532 398.86894c9.633869-26.760747 33.317131-45.894682 61.415916-49.507382l225.994511-33.049524 100.219-202.31125c13.380374-26.091729 40.141121-42.415785 69.444139-42.415785s56.063766 16.324056 69.44414 42.415785l98.211943 200.705606 228.135371 34.655168c28.232589 3.612701 51.91585 22.746635 61.54972 49.507382 9.366262 26.626944 2.274664 56.19757-17.929701 75.866719L785.160329 637.842415l37.465047 228.536783c4.549327 28.366392-7.89442 56.732785-31.711486 72.789233-12.711355 8.563439-27.831177 13.24657-43.352411 13.380373z m-25.824121-30.239644c17.929701 9.366262 39.605906 8.295832 56.331373-2.943682 16.324056-10.570495 24.753691-29.838233 21.542402-48.972168l-41.479159-241.248138L934.217692 457.608781c13.514177-13.112766 18.331112-32.915719 12.17614-50.84542-6.556383-18.464916-22.880439-31.845289-42.28198-34.521364l-241.248138-34.655168-103.028878-213.283157c-9.366262-17.795897-27.831177-29.035411-48.035542-29.035411-20.204364 0-38.66928 11.239514-48.035541 29.035411l-105.035934 214.888802-239.107278 33.852345C100.352803 375.58709 84.028747 388.566053 77.472364 406.763361c-6.154972 17.929701-1.471841 37.732654 12.17614 50.84542l176.620933 174.212466-41.345355 238.438259c-3.077486 19.133934 5.352149 38.401673 21.542402 49.105972 16.859271 11.239514 38.535476 12.443748 56.465177 2.943682l209.269045-110.789495 209.536652 110.789495zM389.235071 544.447406c-6.556383 0-11.774729-5.218346-11.908532-11.774729 0.133804-36.52842 13.514177-71.852607 37.732653-99.282373 25.155103-24.218476 59.007448-36.929831 93.930224-35.324186 4.549327-0.535215 9.098654 1.605645 11.507121 5.485953 2.408467 3.880308 2.408467 8.96485 0 12.845159-2.408467 3.880308-6.957794 6.021168-11.507121 5.485953-28.232589-1.605645-55.929962 8.429635-76.535738 27.831177-19.936757 22.880439-31.042467 51.91585-31.711485 82.155495 0.133804 6.556383-5.084542 12.042336-11.774729 12.309944h0.267607z m0 0" fill="#555555" p-id="2416"></path></svg>