<?xml version="1.0" standalone="no"?><!DOCTYPE svg PUBLIC "-//W3C//DTD SVG 1.1//EN" "http://www.w3.org/Graphics/SVG/1.1/DTD/svg11.dtd"><svg t="1632465237625" class="icon" viewBox="0 0 1024 1024" version="1.1" xmlns="http://www.w3.org/2000/svg" p-id="5282" data-spm-anchor-id="a313x.7781069.0.i16" xmlns:xlink="http://www.w3.org/1999/xlink" width="32" height="32"><defs><style type="text/css"></style></defs><path d="M794.0096 926.5152H229.9904c-61.7472 0-111.7696-50.0224-111.7696-111.7696v-353.792H905.728v353.792c0.0512 61.7472-49.9712 111.7696-111.7184 111.7696z" fill="#fa74b2" p-id="5283" data-spm-anchor-id="a313x.7781069.0.i9" class=""></path><path d="M753.2032 876.3904H270.848c-61.0304 0-110.4896-49.4592-110.4896-110.4896v-241.7664c0-17.9712 14.592-32.5632 32.5632-32.5632h638.2592c17.9712 0 32.5632 14.592 32.5632 32.5632v241.7664c-0.0512 61.0304-49.5104 110.4896-110.5408 110.4896z" fill="#faa6cd" p-id="5284" data-spm-anchor-id="a313x.7781069.0.i11" class=""></path><path d="M703.5392 816.2816H320.512c-54.528 0-98.7136-44.1856-98.7136-98.7136V527.36c0-30.3104 24.576-54.8864 54.8864-54.8864h470.6816c30.3104 0 54.8864 24.576 54.8864 54.8864v190.1568c0 54.528-44.1856 98.7648-98.7136 98.7648z" fill="#ef84ba" p-id="5285" data-spm-anchor-id="a313x.7781069.0.i17" class=""></path><path d="M650.5984 756.7872H373.4528c-54.528 0-98.7136-44.1856-98.7136-98.7136V542.72c0-30.3104 24.576-54.8864 54.8864-54.8864h364.7488c30.3104 0 54.8864 24.576 54.8864 54.8864v115.3536c0.0512 54.528-44.1856 98.7136-98.6624 98.7136z" fill="#ee75ad" p-id="5286" data-spm-anchor-id="a313x.7781069.0.i7" class=""></path><path d="M610.4064 686.7968H413.5936c-43.52 0-78.7456-35.2768-78.7456-78.7456V522.752c0-19.3024 15.6672-34.9184 34.9184-34.9184h284.4672c19.3024 0 34.9184 15.6672 34.9184 34.9184v85.248c0.0512 43.52-35.2256 78.7968-78.7456 78.7968z" fill="#f593c0" p-id="5287" data-spm-anchor-id="a313x.7781069.0.i21" class=""></path><path d="M83.8656 378.7264c-44.3904 100.096 24.1152 216.2688 133.4784 221.184 2.5088 0.1024 5.0688 0.1536 7.5776 0.1536 60.7744 0 113.8176-32.7168 142.6944-81.4592 28.8768 48.7424 81.9712 81.4592 142.6944 81.4592s113.8176-32.7168 142.6944-81.4592c28.8768 48.7424 81.9712 81.4592 142.6944 81.4592 33.1264 0 64-9.728 89.9072-26.4704 60.2112-38.9632 84.2752-115.3536 60.4672-182.9888L855.808 134.144a56.40704 56.40704 0 0 0-53.1968-37.6832H245.76c-22.3232 0-42.5472 13.1584-51.5584 33.536L83.8656 378.7264z" fill="#fa74b2" p-id="5288" data-spm-anchor-id="a313x.7781069.0.i8" class=""></path><path d="M138.7008 359.168c-38.7072 81.7152 21.0432 176.64 116.4288 180.6336 2.2016 0.1024 4.4032 0.1536 6.6048 0.1536 52.992 0 99.2768-26.7264 124.4672-66.5088 25.1904 39.7824 71.4752 66.5088 124.4672 66.5088s99.2768-26.7264 124.4672-66.5088c25.1904 39.7824 71.4752 66.5088 124.4672 66.5088 28.8768 0 55.808-7.936 78.3872-21.6064 52.5312-31.7952 73.5232-94.208 52.736-149.4528l-78.7456-209.4592c-6.912-18.432-25.5488-30.7712-46.3872-30.7712H279.8592c-19.456 0-37.0688 10.752-45.0048 27.392L138.7008 359.168z" fill="#faa6cd" p-id="5289" data-spm-anchor-id="a313x.7781069.0.i10" class=""></path><path d="M189.44 344.32c-33.4336 66.56 18.176 143.872 100.6592 147.1488 1.8944 0.0512 3.7888 0.1024 5.7344 0.1024 45.824 0 85.8112-21.76 107.5712-54.1696 21.76 32.4096 61.7984 54.1696 107.5712 54.1696s85.8112-21.76 107.5712-54.1696c21.76 32.4096 61.7984 54.1696 107.5712 54.1696 24.9856 0 48.2304-6.4512 67.7888-17.6128 45.4144-25.9072 63.5392-76.7488 45.568-121.7536l-68.096-170.5984c-5.9904-15.0016-22.0672-25.088-40.1408-25.088H311.4496c-16.8448 0-32.0512 8.7552-38.8608 22.3232L189.44 344.32z" fill="#ef84ba" p-id="5290" data-spm-anchor-id="a313x.7781069.0.i18" class=""></path><path d="M259.2256 326.7584c-26.2144 47.5648 14.2848 102.7072 78.8992 105.0624 1.4848 0.0512 2.9696 0.1024 4.5056 0.1024 35.8912 0 67.2768-15.5136 84.3264-38.7072 17.0496 23.1424 48.4352 38.7072 84.3264 38.7072 35.8912 0 67.2768-15.5136 84.3264-38.7072 17.0496 23.1424 48.4352 38.7072 84.3264 38.7072 19.6096 0 37.8368-4.608 53.1456-12.5952 35.584-18.4832 49.8176-54.784 35.7376-86.9376l-53.4016-121.8048c-4.7104-10.7008-17.3056-17.92-31.4368-17.92H354.8672c-13.2096 0-25.1392 6.2464-30.464 15.9232L259.2256 326.7584z" fill="#ee75ad" p-id="5291" data-spm-anchor-id="a313x.7781069.0.i19" class=""></path><path d="M681.5744 256.768H345.4464c-43.008 0-77.9776 36.864-77.9776 82.176s34.9696 82.176 77.9776 82.176h336.128c43.008 0 77.9776-36.864 77.9776-82.176s-34.9696-82.176-77.9776-82.176z" fill="#cf2574" p-id="5292" data-spm-anchor-id="a313x.7781069.0.i20" class=""></path><path d="M685.6704 389.5808H341.3504c-23.7568 0-43.0592-22.6816-43.0592-50.6368 0-27.9552 19.2512-50.6368 43.0592-50.6368h344.32c23.7568 0 43.0592 22.6816 43.0592 50.6368 0 27.9552-19.2512 50.6368-43.0592 50.6368z" fill="#F7BC00" p-id="5293"></path><path d="M678.3488 369.8688H341.3504c-14.5408 0-26.3168-13.8752-26.3168-30.9248 0-17.1008 11.776-30.9248 26.3168-30.9248h336.9984c14.5408 0 26.3168 13.8752 26.3168 30.9248 0 17.1008-11.776 30.9248-26.3168 30.9248z" fill="#FFD029" p-id="5294" data-spm-anchor-id="a313x.7781069.0.i22" class=""></path><path d="M671.3344 355.84h-40.8064c-7.936 0-14.336-7.5776-14.336-16.896 0-9.3184 6.4-16.896 14.336-16.896h40.8064c7.936 0 14.336 7.5776 14.336 16.896 0 9.3184-6.4 16.896-14.336 16.896zM567.1936 355.84H360.4992c-7.936 0-14.336-7.5776-14.336-16.896 0-9.3184 6.4-16.896 14.336-16.896h206.6944c7.936 0 14.336 7.5776 14.336 16.896 0 9.3184-6.4 16.896-14.336 16.896z" fill="#FDF2B1" p-id="5295"></path></svg>